<svg xmlns="http://www.w3.org/2000/svg" width="70mm" height="70mm" viewBox="0 0 70 70"><path d="M10.888 0A10.864 10.864 0 000 10.888v48.224A10.864 10.864 0 0010.888 70h48.224A10.864 10.864 0 0070 59.112V10.888A10.864 10.864 0 0059.112 0zm44.019 8.162l8.587 8.31-5.759 5.66 5.76 5.736-27.02 27.013.026.025-8.5 8.498-20.389-19.73 5.858-5.63-5.858-5.765 8.5-8.498 11.775 11.394z" fill="#828282" fill-opacity=".471"/><path d="M54.907 8.162l-27.02 27.013-11.774-11.394-8.5 8.498 5.857 5.764 2.643-2.866L27.887 46.57l27.02-27.013 2.828 2.574 5.76-5.66z" fill="#ababa9" fill-opacity=".549"/></svg>